<?xml version="1.0" encoding="utf-8"?>
<!-- Generator: Adobe Illustrator 16.0.3, SVG Export Plug-In . SVG Version: 6.00 Build 0)  -->
<!DOCTYPE svg PUBLIC "-//W3C//DTD SVG 1.1//EN" "http://www.w3.org/Graphics/SVG/1.1/DTD/svg11.dtd">
<svg version="1.1" id="Layer_1" xmlns="http://www.w3.org/2000/svg" xmlns:xlink="http://www.w3.org/1999/xlink" x="0px" y="0px"
	 width="283.46px" height="283.46px" viewBox="0 0 283.46 283.46" enable-background="new 0 0 283.46 283.46" xml:space="preserve">
<path fill="#98DBF8" stroke="#2472BA" stroke-width="22.6772" stroke-miterlimit="10" d="M269.291,255.427
	c0,7.657-6.207,13.864-13.864,13.864H28.038c-7.657,0-13.865-6.207-13.865-13.864V28.038c0-7.657,6.208-13.865,13.865-13.865
	h227.389c7.657,0,13.864,6.208,13.864,13.865V255.427z"/>
<g>
	<path fill="#BFBFBF" d="M88.398,176.592c3.768-0.039,8.163-0.039,11.699,0c0.383-0.229-0.287,0.344-0.459,0.459
		c-4.512,0.555-7.855,0.268-12.616,0C87.003,176.267,87.864,176.936,88.398,176.592"/>
	<path fill="#404040" d="M99.41,171.086l0.688,0.459l-10.781,0.229c-0.114-0.956-0.688,0-1.146-0.459
		C91.878,170.531,95.796,170.818,99.41,171.086"/>
	<path fill="#BFBFBF" d="M101.245,193.108c5.639-1.165,8.793,4.76,14.222,4.588c0.115,0.076,0.211-0.211,0.459-0.229l0.229,0.229
		c-5.544,0.937-11.183,0.649-14.91-3.67V193.108"/>
	<path fill="#404040" d="M105.833,156.176l2.294-0.459c-0.191,0.574-1.816,1.052-2.523,1.835c-1.204,0.65-2.734,1.319-4.129,0.918
		C102.869,157.82,104.495,156.864,105.833,156.176"/>
	<path fill="#BFBFBF" d="M111.109,193.567c4.281,0.956,8.583,2.294,12.617,2.753c0.841,0.305,2.274,0.114,3.439,0.459h0.689v0.229
		c-4.627,0-10.744-0.287-15.141-1.834c-1.721-1.224-3.632-1.033-5.276-2.523C108.604,192.898,109.943,192.994,111.109,193.567"/>
	<path fill="#404040" d="M112.255,171.545c3.039-0.535,6.289,0.039,9.406,0.229l0.229,0.459c-4.11,0.306-8.603,0.401-13.076-0.459
		C109.943,171.201,110.994,171.487,112.255,171.545"/>
	<path fill="#BFBFBF" d="M112.714,177.51c2.867,0.382,6.499,0.573,9.405,0.688v0.459c-0.134-0.096-0.229,0.096-0.229,0.229
		c-0.67-0.898-1.338,0.248-2.064,0.229c-3.48,0.019-6.824-0.842-10.094-1.147C110.419,177.51,111.757,177.987,112.714,177.51"/>
	<path fill="#404040" d="M130.148,156.864c-0.993,0.383-1.854-0.67-2.982-0.459c-4.701,0.076-10.15-1.166-15.14,0l-0.458-0.229
		C117.589,153.806,124.757,154.57,130.148,156.864"/>
	<path fill="#BFBFBF" d="M134.507,176.821c3.345-0.459,7.551-0.269,10.781,0.688v0.458c-5.046,0.688-10.017,0.306-15.369-0.229
		C130.779,176.267,133.074,177.318,134.507,176.821"/>
	<path fill="#404040" d="M131.525,171.315c4.416,0.076,9.48-0.975,13.763,0.459l0.688,0.459c-3.44,0.497-7.455-0.076-11.009-0.229
		l-3.441-0.229V171.315"/>
	<path fill="#BFBFBF" d="M152.398,199.302v0.229c1.319-0.803,3.04,0.535,4.588-0.229c0.459,0.383,0.937-0.478,1.606-0.458
		l-0.229,0.458c-1.778,0.956-3.498,2.294-5.276,2.753v-0.229c-2.428,0.631-5.2,0.058-7.34-1.147
		C147.601,199.111,150.086,200.066,152.398,199.302"/>
	<path fill="#404040" d="M154.234,155.717c0.917,0.383,1.682,0.287,2.522,0.688c-3.135,0.172-6.957-1.166-9.634,1.605
		c-0.573,0.191-0.765-0.478-1.147-0.688C147.983,154.666,151.328,155.908,154.234,155.717"/>
	<path fill="#FFFFFF" d="M146.664,195.861h-0.229H146.664z"/>
	<path fill="#BFBFBF" d="M156.299,193.338c6.882-2.638,14.05-5.982,20.646-9.635l1.835-0.459c-1.549,1.816-2.695,4.972-4.13,7.342
		c-1.911,1.357-3.631,3.459-5.964,3.899c-5.123,1.28-10.38,3.86-15.828,2.522c-1.911,0.191-3.728,0.096-5.505-0.688
		c-0.039-0.076,0.153-0.745-0.229-0.459C150.086,195.001,153.049,194.045,156.299,193.338"/>
	<path fill="#404040" d="M154.234,159.617c2.542-0.459,4.645,1.738,7.34,1.605c2.467,0.803,5.334,1.854,7.341,3.67
		c1.146-0.096,1.721,0.765,2.523,0.688l1.146,1.146c-1.376-0.019-2.141-0.879-3.67-0.917c-4.874-1.683-9.559-3.498-14.91-4.817
		c-1.338-0.593-3.25-0.306-4.588-1.376C150.851,158.871,152.857,159.541,154.234,159.617"/>
	<path fill="#BFBFBF" d="M157.675,177.051c0.918,0.076,1.777-0.306,2.523,0.229c2.6,0.038,4.702-0.153,7.111,0.688
		c-0.02,0.115,0.459,0.306,0,0.459c-4.226,0.517-8.048-0.535-11.929,0c-0.993,0.134-2.046-0.535-2.982-0.459
		C154.005,177.605,155.629,177.127,157.675,177.051"/>
	<path fill="#404040" d="M162.722,171.774c1.605,0,3.613,0.096,4.588,1.376c-0.593-0.133-0.975,0.535-1.377,0
		c-0.362,0.345-1.128-0.229-1.605,0.229c-3.44,0.306-6.882-0.362-10.322-0.917C156.299,171.105,160.026,172.443,162.722,171.774"/>
	<path fill="#404040" d="M157.445,156.635v-0.229h-0.459v0.229H157.445z"/>
	<path d="M240.945,178.197c-0.727-0.401-0.535-1.835-1.836-1.376c-0.803-0.937-2.427-0.172-3.44-1.147l2.523-0.229
		c0.401-0.42,1.357-0.038,1.376-0.917c0.459-2.37-2.6-1.605-3.899-2.294c0.821-1.797,2.829-3.136,3.899-4.588
		c0.076-0.555,0.269-1.032-0.229-1.147c-1.414-0.268-2.37,0.976-3.67,0.688c0.918-1.146-0.325-2.294-0.229-3.44
		c-2.581-2.104-2.867,1.911-5.047,2.294c-0.401,1.434-1.739,2.197-2.981,2.752c-0.191-0.649-0.287-0.936-0.229-1.605
		c-1.587-2.484-0.727-5.734-1.605-8.487l-0.918-0.688c-0.401,0-1.357-0.478-1.835,0c-1.434,2.677-2.39,5.448-4.588,7.57
		c-4.301,1.701-6.499-2.218-9.864-3.671c-1.605-1.893-4.664-3.039-5.964-5.505c-4.053-4.129-7.589-8.239-10.781-12.846
		c-2.352-1.416-3.498-3.997-5.047-5.736c0.306-3.517,1.931-9.252-0.919-13.075c-1.548-4.684-6.613-0.382-9.175-4.588
		c-1.645-1.529-2.505-3.537-2.064-5.734c0.898-1.816,0.707-4.11,0.458-6.193c0.345-3.078-1.186-5.276-2.981-7.341
		c-1.739-1.377-4.129-1.759-6.193-0.918c-0.899,0.306-0.804,1.645-2.065,1.147c-1.032-0.842-3.422-1.606-2.752-3.44
		c0.573-4.57-2.104-7.629-4.588-10.554h-0.459c-1.549-1.186-3.556-2.236-5.734-1.605c-0.306,0.133-0.593,0.803-1.147,0.688
		c-1.549,1.165-2.6,2.886-3.899,4.587c-1.854,0.02-3.479-0.649-4.817-2.064c-1.816-4.319-4.684-7.474-9.176-8.258
		c-2.39,0.019-4.301,0.401-5.734,2.294c-1.434,0.593-1.912,2.504-2.982,3.67c-0.842,0.937-1.129,2.18-2.294,3.212
		c-1.702,1.357-4.091,3.938-6.194,1.835c-3.154-2.39-6.117-4.875-10.322-4.588c-0.67,0.86-2.104,0.956-2.294,2.294
		c-0.19,0.478-0.383-0.573-0.459,0c0.362,0.478-0.401,1.052-0.458,1.835c-0.994,4.664,0.631,8.393,1.605,12.389
		c-0.975,1.166-1.166,2.886-2.753,3.67c-3.001,0.172-4.244-2.981-7.569-2.523c-1.549-0.076-2.027,1.739-2.982,2.294
		c-2.39,4.416,0.477,9.004,1.605,13.075l-0.459,0.459c-4.014,1.301-7.933,3.498-12.387,3.441
		c-8.354,0.057-17.721,2.542-23.169,9.404c-1.434,3.078-3.345,6.327-4.588,9.405c0.096,0.937,0.86,1.51,1.606,1.607
		c1.548-0.097,2.982-0.287,4.129-0.688c9.653-1.224,18.255-3.327,26.381-8.488c2.963,0,6.021-2.104,9.175-0.688
		c1.721,1.357,4.015,1.452,5.506,3.211c2.523,3.212,1.76,6.94,1.836,11.011c0.496,1.854-0.459,3.574,0,5.276
		c-0.555,0.975,0.879,1.166,0.917,2.064c-1.759,1.491,0.058,2.638,0.917,3.671c-0.859,0.497-1.624,1.548-2.752,1.376
		c-2.409,0.268-3.556,2.562-5.965,2.523c-3.135,2.046-7.34,2.141-10.781,3.44c-9.367,1.186-20.359-1.777-29.362,2.064
		c-2.562,1.988-5.046,2.657-7.341,5.047c0,1.434-1.434,0.383-1.376,1.835c0.516,0.172,0.42,1.032,0.917,0.918
		c1.605,2.313,4.187,3.938,6.882,4.817c1.032,0.555,2.466,1.796,3.899,1.146c0.86,0.649,2.198,1.128,3.211,0.918
		c4.817,0.879,10.075-0.555,14.911-1.377c2.141-0.038,4.722-1.759,6.882-0.458c7.302,3.288,14.566,5.009,22.021,8.259
		c-0.765,0.86-1.53,1.624-1.376,2.753c0.324,3.077,3.479,4.415,5.964,5.274c2.485,0.67,5.639,1.338,8.028,1.147
		c1.338,0.19,2.484-0.669,4.129-0.688c-0.114-0.362,0.268-0.936,0.688-1.146c3.308,0.784,7.513,0.879,10.782,0.459
		c0.459-0.153,0.936-0.153,1.146,0c0.459-0.44,1.129-0.535,0.918-1.377c2.121,0.268,3.173-0.21,5.275,0.23
		c0.383-0.345,1.529,0.324,1.836-0.459c1.318,0.114,2.656,0.114,3.899-0.23c3.823-0.992,0.286,3.212,2.064,4.588
		c-0.058,2.064,2.428,1.205,3.44,2.295c0.421,0.152,1.186-0.803,1.606-0.23c3.976,0.766,9.042-0.955,11.24-4.588
		c4.588-1.529,10.035-2.293,13.534-6.192c3.574-2.122,3.001-6.901,7.11-8.947c0.574,0.707,0.287-0.727,0.918-0.459
		c0.516-0.555,1.186-0.362,1.835-0.459c3.939-0.19,7.284-0.382,11.012-0.688c2.104,0.019,3.728,0.21,5.735-0.459
		c1.72,0,4.301-0.19,5.734,0c2.294-0.478,4.971-0.383,7.111-0.229l0.459,0.918c2.083,1.892,3.517,3.805,5.505,5.735
		c1.835,1.224,3.364,2.849,5.276,3.899c0.382-0.096,0.478-0.764,0.459-1.146c-0.746-3.441-3.423-6.214-4.817-9.177
		c0.344-0.383,0.727-0.383,0.917-0.688c1.338,0.593,3.059,0.02,4.13,0.688c3.039,3.538,5.523,7.743,9.863,9.864
		c0.153-0.114,0.535-0.21-0.918-3.44l-3.44-5.965l1.147-0.229c1.261-0.756,2.695,0.344,4.129-0.459
		c1.338-0.439,3.536-0.344,4.129-2.064h-0.229L240.945,178.197z M144.141,155.029c0.019,0.975-0.554,1.931,0.229,2.522
		c0.459,0.363,0.459,1.032,0.918,1.377c-4.283,0.134-8.009-1.396-11.928-1.835c-1.816-2.141-5.161-2.237-7.569-3.212
		c-1.702-0.076-2.85-0.937-3.9-2.294c-0.573-2.562,1.721-3.899,2.982-5.275c1.797-0.631,3.709-1.778,5.734-1.606
		c0.746-0.458,2.084,0.306,2.982-0.458c5.506,0.382,9.902,1.72,14.68,3.67c2.294,0.248,3.25,2.351,4.588,3.899
		C150.181,152.659,145.689,151.989,144.141,155.029z M204.242,172.463c-6.939-1.262-15.254-0.784-21.563-2.982
		c-0.86-0.096-1.529-1.243-2.294-1.146c-3.154-2.771-5.735-6.979-8.029-10.323c0.574-1.624-0.859-4.11,1.147-5.275
		c2.867-1.51,6.212,0.21,8.946,0.688c6.539,2.868,11.7,7.359,17.894,10.323c4.416,2.294,8.144,5.639,12.846,7.34l0.229,0.688
		c0.42-0.19,0.707-0.383,1.146,0C211.736,174.451,207.913,171.965,204.242,172.463z"/>
	<path fill="#BFBFBF" d="M176.485,176.821c0.459,0.688,0.841,0.019,1.146,0c1.319,0.401,3.136-0.363,3.899,0.688
		c-1.338-0.097-2.771,0.286-4.358-0.459c-0.229,0.172-0.516,1.032-0.917,0.229l-1.606-0.229
		C175.032,176.745,175.987,177.51,176.485,176.821"/>
	<path fill="#404040" d="M180.385,173.38l0.459,0.229c-1.51,0.363-3.04-0.21-4.358-0.459
		C177.804,172.252,178.951,173.399,180.385,173.38"/>
	<path fill="#404040" d="M192.314,174.527h1.835H192.314"/>
	<path fill="#404040" d="M222.364,170.627c0.362,0.191,0.745-0.19,0.688-0.458c-0.804,1.988-2.619,4.377-4.817,4.588
		c-1.147,0.172-1.721,0.172-2.753-0.229C217.088,172.443,220.529,171.87,222.364,170.627"/>
	<path fill="#BFBFBF" d="M216.63,181.639c3.422,0.362,4.76,3.9,6.193,6.653c-2.581-1.606-4.302-3.997-6.193-5.966V181.639"/>
	<path fill="#404040" d="M235.439,170.398c-1.051,2.236-3.918,3.097-5.734,4.358c-0.765-0.211-1.53,0.362-2.064-0.229
		C229.896,172.73,232.572,171.201,235.439,170.398"/>
	<path fill="#BFBFBF" d="M230.852,183.703c0.287,2.026,2.771,3.174,3.212,5.276c-1.205-0.573-1.587-1.624-2.753-2.752
		c-1.415-1.167-2.466-2.697-3.67-4.589C229.132,181.715,229.896,183.148,230.852,183.703"/>
	<path fill="#808080" d="M231.77,179.574c1.137-1.014,2.236,0.707,3.44,0.458c0.803-0.229,1.854-0.516,2.523-0.917l-0.688-0.459
		c-3.517,0.19-6.479-2.007-9.634-0.918c-4.11-0.516-8.411-1.376-12.617-0.917c-1.72-0.842-3.44-0.937-5.505-1.377
		c-0.229,0.535-0.707-0.133-1.147-0.229c-3.574-0.096-7.588-0.382-11.011-0.458l-0.688,1.146c-0.191,1.224,0.956,1.606,0.688,2.753
		c-2.695,0.478-5.085,0.096-7.569,0c-0.67,0.86-1.434-0.573-2.064-0.229c-0.229-0.153-0.517-0.439-0.229-0.917
		c1.146-0.191,0.096-1.625,1.376-2.065c-0.516-0.325-0.898-0.993-1.146-1.605c-1.854,0.134-3.002-0.727-4.818-0.459
		c0.096,0.498-0.191,1.262,0,1.835c-0.956,1.435,2.39,3.25-0.688,3.441c-1.223-0.287-2.849,0.19-3.899-0.459l-4.129,0.459v0.229
		c-1.319,0.153-1.032-1.376-0.918-2.294c0.459-0.612,0.076-1.759,0.459-2.523c-0.478-0.19-1.051-0.669-0.918-1.146h0.229
		c-1.318-0.191-3.23-0.479-3.899,0.229c0.096,0.535-0.478,0.728-0.688,0.918l-0.229,2.294c-0.229,0.096-0.229,0.287-0.229,0.459
		c0.478,0.497,1.242,1.07,0.688,2.064c-0.401,0.727-1.357,1.014-2.294,0.688c-5.372,0.611-9.1-1.301-13.992,0.229
		c-0.937-0.478-0.746-1.72-0.459-2.752c1.434-0.498,0.096-2.887,1.146-4.129c-0.19-0.383-0.286-0.67-0.229-1.147h0.229h-5.734
		c0.669,1.911-2.007,2.104-0.688,3.899c0.115,1.071,1.262,2.409-0.229,3.212c-6.059,1.108-12.176,0.058-18.122-0.459
		c-0.459-0.917,0.498-1.204,0.688-2.064c1.53-0.383,0.286-2.39,1.147-3.44c0.19-0.765-0.861-0.67-1.147-1.147l0.688-0.688
		c-0.402,0.02-0.688-0.841-1.146-0.229c-1.836-0.038-3.557,0.345-5.277,0.688c0.287,0.42,0.287,1.28,0,1.835
		c-1.434,0.02-0.286,1.071-0.229,1.835c0.611,0.191,1.09,0.478,0.459,1.147l-0.23,0.459c0.383,0.306,0.574,0.401,1.147,0.688
		c-0.86,0.669-0.669,1.815-1.147,2.752c-1.434-0.745-2.676,0.401-4.129-0.459c-3.422,0.383-6.385-1.146-9.635-0.458
		c-0.573-0.784-1.434-1.357-1.146-2.523h0.688c-0.496-0.842-0.879-2.563-0.459-3.441c-0.42-0.649-1.185-1.318-0.688-2.294
		c0.363-0.362,0.746-0.745,0.459-1.376c-2.008-0.898-4.301-0.325-6.193,0.917c-0.688,0.67-0.115,1.912-0.918,2.523
		c0.039,1.683,1.09,3.308,0.229,4.817c-4.874,0.593-10.514,1.166-15.599,0.229c0.784-1.739-0.555-3.556-0.917-4.817
		c-1.166-0.841-2.218-2.466-3.9-1.835c-1.376,1.567-3.383,2.714-3.67,5.276c-0.096,0.114-0.383,0.019-0.688,0
		c-0.842-3.613-5.43-4.282-8.488-5.276c-0.86-0.439-2.581,0.039-3.67-0.459c-4.454-0.172-9.042,0.115-13.075,1.147
		c-1.032,0.975-2.657,0.688-3.67,1.835c-0.994,0.096-2.141,0.669-2.523,1.605c0.478,0.593,0,1.549,0.688,2.064
		c5.811,5.41,13.936,6.079,21.792,4.817c1.606-1.319,3.613-0.555,5.505-1.376c2.695-0.612,5.85-1.09,8.259,0.459
		c3.23,1.223,6.671,2.466,9.634,3.441c4.684,1.032,8.699,4.187,13.535,5.047c0.324-0.096,0.611,0.478,1.146,0.459
		c10.17,3.555,20.492,5.753,31.656,5.275c3.27,0,6.709-1.242,9.864-1.146c4.396-1.243,9.366-2.008,13.305-4.129
		c6.289-2.944,12.311-6.098,18.58-8.947c0.134-0.306,0.517-0.784,0.918-1.147c0.459,0.937,1.988,0.649,2.753,0.688
		c1.911-0.325,3.441,0.248,5.277-0.459c8.965,0.707,17.089-1.682,26.838-0.918c1.435-1.434,3.441-0.478,4.817-0.688
		c3.308,1.645,6.748-0.937,10.323,0L231.77,179.574"/>
</g>
</svg>
