<?xml version="1.0" encoding="UTF-8"?>
<svg viewBox="0 0 165 263.75" xmlns="http://www.w3.org/2000/svg">
 <g transform="matrix(1.25,0,0,-1.25,0,263.75)">
  <g transform="scale(.24)">
   <path d="m104.25,49.25-26-15c-14.082-6.332-14.5-4.668-15-4 9.25,18.918 27.582,29.75 43,43 2.918,4.668.418,12.168 3,18-1.332.832-1.332,2.5-3,4-12.918-6.082-25-17.75-40-21-1.668-.082-4.582.332-5,2 4.582,8.332 11.668,15 17,23 8.418,8.668 16.75,14.918 25,24l4,2c.668,9.332 1.082,21-1,31 .832,6.25 0,17.5 0,25-2.918,8.75-2.082,15.832-2,25-1.332,16.25-2.168,30.832-3,48-.418,2.832.418,5.75-2,8 1.168,2.75-5.082,1.5-2,4-8.918,17.918-29.75,15.418-39,31-17,15.25-20.332,39-27,59-15.832,9.582-23.33203,31.668-20,49 2.5,1.832-1.66797,5.168-1,7 4.75,4.418 1,15.25 10,15 6,7.75 24.332-7.668 20,9-1.5,5.418-1.5,11.25-1,17-3.418,1.332-.5,6.332-2,8 1.918,9.168-.168,13.75 1,23-3.668-.918-4.082,2-6,4 .668.918.668,3 0,5h-1 1c-1.832,14.25-1.418,32.582 2,47-.918,1.832-3.418,3.5-5,3-.082,7.168-3.832,12.168-3,18-.832,10.418 2.082,24.168 5,35 3.75,10.832 9.582,24.582 23,26 4.918.668 8.25-2.668 12-6 14.168,32.5 21.668,64.168 36,96 5.668,9.418-1.832,20.668-2,30-3.582,21.082-9.832,44-6,65-.918,4.418 1.168,10.25 4,14-2.832,6.25 2.582,12.5 5,17 3.832,11.75 10.918,23 21,30-.5,2.168 3.25,1.75 4,4 6.332.25 1.75-6 8-6 10.418-10 13.332-20.832 22-32 16.75-39.25 3.832-87.168 9-128 5.668-15 6.082-33.332 15-47-.168-10.5 9.832-15.5 11-26-.75-4.918 3.832-8.25 6-12 4.5,3.75 9.5,11.668 16,4 3.918.168 4.75,6.418 9,4 7.418,2 14.918-2.168 23,0 17.75.332 34-3 48,8 7.668,6.5 8.082,16.5 14,24 6.168,13.75-3,27.082-3,40-22.5,35.418-31.668,72.918-37,115-1.75,5-2.582,11.25-3,18 .418,3.25 2.918,6.582 7,7 13.418-5.418 27.582-13.75 41-20 29.918-23.75 40.75-64.582 41-101-.25-19.418 9.332-36.5 15-54l2-2c17.75,4.918 37.75,17.418 57,7 2.418-4.168 10.332-6.25 10-13 2-14.5-11.75-19.918-11-33 3.418-6.918 10.918-7.75 16-12 17.418,4.25 33.668,11.332 54,7 3.418-.25 5.918-3.582 8-2 2.5-.332-2.082-1.168 0-2 5.832-.832 6.25-7.082 10-10 1.25-18.332-9.582-31.25-20-45-9.168-9.168 2.082-19.582 8-27 4.5-5.082 9.918-6.332 14-10 5.082-4.668 13.418-6.75 16-13 8.25-6.25 9.918-14.582 10-25-3.418-19.582-17.168-32.082-36-40-6.168-5.832-9.082-12.918-9-21 7.418-5.668 14.918-10.25 20-17-.5-2.418 2.418-3.668 3-5 2.75-9.5-1.832-18.25-7-25v-2c-12.75-10.832-26.082-22.5-46-20-8,2.918-11.332-7.5-15-12-2.168-5.5 3.668-5.082 5-9 3.668-9 2-19.418-4-27-9-7.832-18.582-14.5-32-13-9.082-1.082-19.082-1.918-27,2-9.582,1.918-18.332-1.832-25-9-18.332-11.168.418-33.25-20-40-16.668-12.418-41.668-5.332-57-4-7.582-6.75-18.832-11.75-25-22-20.082-13.918-38-29.332-56-47-10.75-5.668-15.75-19-24-26-6.332-14.668-23.418-24.25-16-43 9.25-9.582 21.332-13.75 33-20 2.082-2.082 0-6.25 0-8l-3-4c-12-3.832-26.168-.082-37-7-2.918.25-4.168-.168-7-1 2.418-5.418 5.75-11.25 12-13 1.668-9.5 19.168-10.75 10-22-5,.418-10-5-15-1-1.25-5.668 4.168-9.832 3-16-.5-2.168-2.582-1.332-5-1-6.332,4.668-12.168,13.418-20,17-3-5.668.332-19-10-17-3.832.082-2.168,4.25-4,6l-1,11c-4.25-4.418-.918-11.5-5-15 2-5.66797-4.25-4.832-6-8l-2,2v-1c-7.5,2.582-7.082,12.168-9,18-3.5,6.25 1.293,12.5-2,18l-1,5"/>
   <path d="m125.25,672.25c.168-16.418.168-35.582 0-51 1-1.668-1.5,1.25-2,2-2.418,19.668-1.168,34.25 0,55 3.418.082.5-3.668 2-6" fill="#bfbfbf"/>
   <path d="m149.25,624.25-2-3-1,47c4.168.5 0,3 2,5 3.418-16.168 2.168-33.25 1-49" fill="#404040"/>
   <path d="m53.25,616.25c5.082-24.582-20.75-38.332-20-62-.332-.5.918-.918 1-2l-1-1c-4.082,24.168-2.832,48.75 16,65h4" fill="#bfbfbf"/>
   <path d="m214.25,596.25 2-10c-2.5.832-4.582,7.918-8,11-2.832,5.25-5.75,11.918-4,18 2.832-6.082 7-13.168 10-19" fill="#404040"/>
   <path d="m51.25,573.25c-4.168-18.668-10-37.418-12-55-1.332-3.668-.5-9.918-2-15v-3h-1c0,20.168 1.25,46.832 8,66 5.332,7.5 4.5,15.832 11,23-1.082-5.082-1.5-10.918-4-16" fill="#bfbfbf"/>
   <path d="m147.25,568.25c2.332-13.25-.168-27.418-1-41l-2-1c-1.332,17.918-1.75,37.5 2,57 2.5-4.918 1.25-9.5 1-15" fill="#404040"/>
   <path d="m121.25,566.25c-1.668-12.5-2.5-28.332-3-41h-2c.418.582-.418,1-1,1 3.918,2.918-1.082,5.832-1,9-.082,15.168 3.668,29.75 5,44 2-3-.082-8.832 2-13" fill="#bfbfbf"/>
   <path d="m211.25,490.25c-1.668,4.332 2.918,8.082 2,13-.332,20.5 5.082,44.25 0,66l1,2c10.332-26.25 7-57.5-3-81" fill="#404040"/>
   <path d="m257.25,513.25c2.75-7.832 7.75-16.168 7-25 2-3.25-1.332-9.082 2-13-1.668-24-7.5-43.168-16-64-1.082-10-10.25-14.168-17-20-3.668,11.668-.75,31.25-14,38-4.25-.082-8.418,2.418-11-1-1.582-2-4.5-2-6-4-.582,18.668 6.082,34.918 8,52 9.332,7.918 9.75,22.5 14,33 .332,7.418 4.082,12.418 10,17 11.168,2.5 17-7.5 23-13" fill="#fff"/>
   <path d="m124.25 471.25c2-14.582 1.168-32.918-3-47h-2c-3 22-1.332 43.668 1 67 6.418-3.75 1.832-13.75 4-20" fill="#bfbfbf"/>
   <path d="m148.25,484.25c-.332-19.25 4.25-41.332-2-60l-2-3c-2.168,15 .332,32.5 1,48l1,15h2" fill="#404040"/>
   <path d="m26.25,393.25h-1c3.5-5.75-2.332-13.25 1-20-1.668-2 2.082-4.082 2-7l-2,1c-4.168,7.75-10,15.25-12,23h1c-2.75,10.582-.25,22.668 5,32 6.832-8.082 2.668-18.918 6-29" fill="#bfbfbf"/>
   <path d="m216.25,385.25c-1.668-4-1.25-7.332-3-11-.75,13.668 5.082,30.332-7,42-.832,2.5 2.082,3.332 3,5 11.582-8.75 6.168-23.332 7-36" fill="#404040"/>
   <path d="m41.25 418.25v1-1z" fill="#fff"/>
   <path d="m52.25,376.25c11.5-30 26.082-61.25 42-90l2-8c-7.918,6.75-21.668,11.75-32,18-5.918,8.332-15.082,15.832-17,26-5.582,22.332-16.832,45.25-11,69-.832,8.332-.418,16.25 3,24 .332.168 3.25-.668 2,1 3.75-12.918 7.918-25.832 11-40" fill="#bfbfbf"/>
   <path d="m199.25,385.25c2-11.082-7.582-20.25-7-32-3.5-10.75-8.082-23.25-16-32 .418-5-3.332-7.5-3-11l-5-5c.082,6 3.832,9.332 4,16 7.332,21.25 15.25,41.668 21,65 2.582,5.832 1.332,14.168 6,20 3.25-6.25.332-15 0-21" fill="#404040"/>
   <path d="m123.25,370.25c-.332-4 1.332-7.75-1-11-.168-11.332.668-20.5-3-31-.5.082-1.332-2-2,0-2.25,18.418 2.332,35.082 0,52-.582,4.332 2.332,8.918 2,13 1.582-7 3.668-14.082 4-23" fill="#bfbfbf"/>
   <path d="m146.25,348.25c0-7-.418-15.75-6-20 .582,2.582-2.332,4.25 0,6-1.5,1.582 1,4.918-1,7-1.332,15 1.582,30 4,45 5.918-10 .082-26.25 3-38" fill="#404040"/>
   <path d="m212.25 371.25h1v2h-1v-2z" fill="#404040"/>
   <path d="m229.25,301.25c6.582-12.5-.918-27.082-3-39-12.5-28.5-32.082-51-45-78-10-19.25-24.582-35.5-32-56l-3-1c.832-1.832 1.668-3.082 0-5-11.668,12.332-.832,29-3,45 5.5,30.25 3.418,66.5 13,94 .418,3.75 5.418,6.668 5,10 12.082,13.75 30.418,25 45,35 7.082-2.5 17.918,3.75 23-5" fill="#fff"/>
   <path d="m124.25,288.25c-3-2-.082-3.668 0-5-1.75-5.75 1.582-13.668-3-17 .418,5.832-1.25,12.082 2,19-.75,1-4.5,2.25-1,4l1,7c1.332-1.668-2-5.832 1-8" fill="#bfbfbf"/>
   <path d="m139.25,271.25-1-2c-1.582,6.582.918,13.25 2,19 3.918-5.75-1.082-10.75-1-17" fill="#404040"/>
   <path d="m134.25 219.25v-8 8" fill="#404040"/>
   <path d="m151.25,88.25c-.832-1.582.832-3.25 2-3-8.668,3.5-19.082,11.418-20,21-.75,5-.75,7.5 1,12 9.082-7 11.582-22 17-30" fill="#404040"/>
   <path d="m103.25 113.25c-1.582-14.918-17-20.75-29-27 7 11.25 17.418 18.75 26 27h3" fill="#bfbfbf"/>
   <path d="m152.25,31.25c-9.75,4.582-13.5,17.082-19,25 .918,3.332-1.582,6.668 1,9 7.832-9.832 14.5-21.5 18-34" fill="#404040"/>
   <path d="m94.25,51.25c-8.832-1.25-13.832-12.082-23-14 2.5,5.25 7.082,6.918 12,12 5.082,6.168 11.75,10.75 20,16-.332-6.5-6.582-9.832-9-14" fill="#bfbfbf"/>
   <path d="m112.25,47.25c4.418-4.957-3.082-9.75-2-15 1-3.5 2.25-8.082 4-11l2,3c-.832,15.332 8.75,28.25 4,42 2.25,17.918 6,36.668 4,55 3.668,7.5 4.082,15 6,24-2.332,1 .582,3.082 1,5 .418,15.582 1.668,33.082 2,48l-5,3c-5.332.832-7-4.168-12-3-2.082,11.75-.418,22.168 0,33-3.75,2.918 2.5,6.25 1,9 .668,1 1.918,2.25 4,1 .832-5 7.082-.418 9-6 1.418,2.25 4.332,3.918 7,5-.582,8.082 3.168,13.082 2,21-2.168-.418-5.5.832-8,0-6.25,4.168-14.168-10.418-15,3 1.25,5.332-.832,12.418 2,17l-2,18h-1c-.668,5.75 6,4.5 10,4 2.668-2 7.668-.332 11-2 .832,2.082 2.918,4.582 5,4v-1c.832,5.75 2.082,14.082-1,17-2.332-.418-3.168,2.082-4,3l-10,1c-.418,1-1.25,1-2,1-2.168-2.082-4.668-5.418-9-3-3.168,1.75-4.418,5.918-3,10-2.668,23.418 5.668,39.668-1,61 2.082,4.082 7.5,3.25 12,2 2.168-6.25 12.582-.418 18-5 1.668.832 2.918,1.25 5,1v-1 25c-8.332-2.918-9.168,8.75-17,3-4.668-.5-10.5-5.5-14,1-4.832,26.418-.25,53.082 2,79 4,2 5.25-2.168 9-3 1.668-6.668 10.418-1.25 15-5 3.332-.832 2.918,3.75 5,5l3-3c-.082,1.75 3.668,3 1,5 .168,8-1.5,15.5-3,23-1.832-1.25-5.582-1.25-8,0-.082,6.25-4.668,1.25-8,1-.832-2.668-2.082-4.75-5-2l-2,1c-1.332-1.668-1.75-2.5-3-5-2.918,3.75-7.918,2.918-12,5 3.25,6.25-1.75,11.668 2,18-1.668,14.918 5,27.832 2,42 3.418,2.5 5.918,6.25 11,5v-3c3.668,2.168 11.168,3.832 15,2 2.832,1.832 5.75,5.168 10,3 1.582-1.582 3.25-3.25 6-2 3.918,8.75 1.418,18.75-4,27-2.918,3-8.332.5-11,4-7.332-.168-14.418-4.75-21-1-2.582,21.25-5.082,45.832-1,68 7.582-3.418 15.5,2.418 21,4 3.668,5.082 10.75,9.668 8,17-6.832,6-11.832,14.75-23,16-.5.418-.082,1.668 0,3 15.75,3.668 18.668,23.668 23,37 1.918,3.75-.168,11.25 2,16 .75,19.418-.5,39.418-5,57-4.25,4.5-3,11.582-8,16-.418,4.332-2.918,9.332-7,11-2.582-2.082-6.75,0-9-3-23.582-25.332-26.5-60.75-21-95 5.75-7 2.418-15.75 6-24 2.668-11.75 4.75-25.5-2-36-5.332-14.082-10.75-29.082-15-42-4.5-20.418-18.25-37.918-22-59 .418-1.418-2.082-2.668-2-5-15.5-44.332-25.082-89.332-23-138 0-14.25 5.418-29.25 5-43 5.418-19.168 8.75-40.832 18-58 12.832-27.418 26.582-53.668 39-81 1.332-.582 3.418-2.25 5-4-4.082-2-2.832-8.668-3-12 1.418-8.332-1.082-15 2-23-3.082-39.082 7.332-74.5 4-117 6.25-6.25 2.082-15 3-21-7.168-14.418 4.082-29.418 0-45l-2-8" fill="#808080"/>
  </g>
 </g>
</svg>