# Blender 4.1.1
# www.blender.org
mtllib datatarget.mtl
o Cone
v -0.500000 0.500000 -0.500000
v 0.500000 0.500000 -0.500000
v 0.500000 -0.500000 -0.500000
v -0.500000 -0.500000 -0.500000
v 0.000000 0.000000 0.000000
vn -0.0000 0.7071 0.7071
vn 0.7071 -0.0000 0.7071
vn -0.0000 -0.0000 -1.0000
vn -0.0000 -0.7071 0.7071
vn -0.7071 -0.0000 0.7071
s 0
usemtl Black
f 1//1 5//1 2//1
f 2//3 4//3 1//3
f 3//4 5//4 4//4
f 2//3 3//3 4//3
usemtl White
f 2//2 5//2 3//2
f 4//5 5//5 1//5
o Cone.001
v 0.500000 -0.500000 0.500000
v 0.500000 0.500000 0.500000
v -0.500000 0.500000 0.500000
v -0.500000 -0.500000 0.500000
v -0.000000 -0.000000 0.000000
vn 0.7071 -0.0000 -0.7071
vn -0.0000 0.7071 -0.7071
vn -0.0000 -0.0000 1.0000
vn -0.7071 -0.0000 -0.7071
vn -0.0000 -0.7071 -0.7071
s 0
usemtl White
f 7//7 10//7 8//7
f 7//8 9//8 6//8
f 9//10 10//10 6//10
f 7//8 8//8 9//8
usemtl Black
f 6//6 10//6 7//6
f 8//9 10//9 9//9
